PathFileType	4	(X/Y/Z)	53_2_98_p1_0-311.trc
DataRate	CameraRate	NumFrames	NumMarkers	Units	OrigDataRate	OrigDataStartFrame	OrigNumFrames
60.0	60.0	7	27	m	60.0	234	312
Frame#	Time	RHip			RKnee			RAnkle			RBigToe			RSmallToe			RHeel			LHip			LKnee			LAnkle			LBigToe			LSmallToe			LHeel			Neck			Head			Nose			RShoulder			RElbow			RWrist			RThumb			RIndex			RPinky			LShoulder			LElbow			LWrist			LThumb			LIndex			LPinky			
		X1	Y1	Z1	X2	Y2	Z2	X3	Y3	Z3	X4	Y4	Z4	X5	Y5	Z5	X6	Y6	Z6	X7	Y7	Z7	X8	Y8	Z8	X9	Y9	Z9	X10	Y10	Z10	X11	Y11	Z11	X12	Y12	Z12	X13	Y13	Z13	X14	Y14	Z14	X15	Y15	Z15	X16	Y16	Z16	X17	Y17	Z17	X18	Y18	Z18	X19	Y19	Z19	X20	Y20	Z20	X21	Y21	Z21	X22	Y22	Z22	X23	Y23	Z23	X24	Y24	Z24	X25	Y25	Z25	X26	Y26	Z26	X27	Y27	Z27	
234	3.9	0.3752562535205305	0.6160948540548296	0.6727941945579264	0.3881942823115987	0.7800895971226507	1.1302108875800365	0.3368481586638324	0.8533267947658526	1.5239176037261593	0.32144768430756476	0.7387327342678246	1.5783290277650572	0.37138816065065017	0.746531531299134	1.5727497302192088	0.31616999629025294	0.9507238182910025	1.6043555778219887	0.20155186996673385	0.6255796301753099	0.6684289123077344	0.1619862420668188	0.7755607822980741	1.121641921409429	0.14803779469616132	0.8806915766725504	1.54502226531841	0.1735656598058019	0.7567970423448516	1.5735507507765663	0.11354677031703796	0.776370137521769	1.5669016545493806	0.1654337794405851	0.91313274535712	1.572297878639807	0.3125407620765959	0.5303030622794879	0.16325620287018325	0.3352822485979325	0.4358863882877361	-0.056279543190266436	0.3515519030155097	0.3921771872757487	0.07248934012241154	0.43443644513165297	0.5409818215666031	0.24002645830392177	0.4669975604710653	0.5956893419657903	0.49719454558001497	0.5795961117390059	0.42569499769301705	0.49652997419919337	0.6616865459717558	0.3781722065689086	0.45483088902046176	0.6719675876167388	0.38819189912815943	0.46636492697765475	0.63817281349997	0.35229949700402935	0.4897309160231154	0.15361497469136487	0.5608353663445105	0.22884256025772073	0.06415748192565397	0.645930138928993	0.4736330319148782	0.047922750964862315	0.4876812727829227	0.6773590283920182	0.07373723104155916	0.45244984812090483	0.7586012575930026	0.06141128138980845	0.45810130050386993	0.8107768631995032	0.053529462522095554	0.499414201381957	0.8158525499045804
235	3.9166666666666665	0.3711403859677825	0.6031266193045087	0.6713430366878457	0.3882468296173122	0.7800132086878159	1.1301853612932597	0.3379443371766345	0.8521838098508102	1.519538439093169	0.3225968016205545	0.7376755494504826	1.573532010968715	0.37499663098498864	0.7295202295401862	1.5660520710192405	0.3111968581537275	0.9483456173104113	1.6031013130302234	0.20159858509427409	0.6254585437102108	0.6682832339419663	0.15777145205648793	0.7738071824440547	1.1212263214878384	0.14806650604030744	0.8805383960794209	1.5450055494663653	0.17363237804110773	0.7562302786244158	1.5733085689143775	0.11355139699493667	0.7762726561981329	1.5668548266652123	0.1657060312044593	0.9127971535552467	1.5765132205355499	0.315794338251737	0.5173917610905724	0.16414904375109585	0.3352919132332152	0.4357051662859401	-0.056239973450018965	0.35132154528997983	0.39181479422201254	0.0727610268614349	0.43421876908702517	0.54119075748715	0.243839515304754	0.4577684280187052	0.5809498487278059	0.49317669841986095	0.5794506271973904	0.42565444028704574	0.49660442857956316	0.6618070001462968	0.37987808265888956	0.4607447513769644	0.6717366158632707	0.3881252497696739	0.46649872551463195	0.6381235029976967	0.3521302865700719	0.4935070933813559	0.15364863515808325	0.5608077905965977	0.2288001452246951	0.06385512309614802	0.6439485896681424	0.4694923515080286	0.047528322620378954	0.4855611743627204	0.6727685017424185	0.06985480512096812	0.44847091546140444	0.7508508836978459	0.06130240135924813	0.44245830563444377	0.8041318755543048	0.053771604814282475	0.4966169780053639	0.8080598742949862
236	3.933333333333333	0.37117547182024935	0.6029049501990523	0.6714162029373045	0.38834623494684656	0.7790402038270952	1.1340965480170295	0.3331675294573746	0.8512100779696498	1.5192174464645392	0.32129144524685277	0.7401040074847982	1.574169582593132	0.3664563822063416	0.7440873572292309	1.5715417882016267	0.3113141143021202	0.9484190215604156	1.602958518845447	0.20574819628572116	0.611199822005197	0.6667324182595016	0.16221760044758343	0.7740688981614817	1.1254795497470125	0.1480719131277677	0.8806153621320646	1.5451563704910614	0.1695660665002776	0.7435921261431508	1.572041082800554	0.11240134105373172	0.7778692839420333	1.5711333911299759	0.16452703320150291	0.9155720370411552	1.5781985456269136	0.3127044055581336	0.5320978818710671	0.16716503093324894	0.34247507713025993	0.42401916739873896	-0.05130363163333731	0.3435187442134164	0.3800157324398193	0.07397434971798196	0.43865120256987883	0.5440938170974923	0.24747944354198143	0.45503119129922887	0.5968512540836435	0.496950742152799	0.5767549490389667	0.43971020233398506	0.501111816581204	0.6618989560528931	0.3797119848352331	0.4608681362804113	0.6714309159887298	0.39171235685182015	0.4657581545722205	0.6436451725476238	0.3483404426217558	0.493560633120529	0.1535988985839326	0.5609869623751893	0.22874853422682934	0.06357103184856529	0.6418003192172459	0.46516240915769014	0.04756441160351444	0.48121637545421003	0.6568675715698387	0.0662687196898132	0.45767323873732535	0.7377747478014115	0.05458696634023494	0.4404302413687461	0.795832070512467	0.0535076152254037	0.49668473323104256	0.8041013280881143
237	3.95	0.3763525971559087	0.617505883460231	0.673012940670574	0.3882163254199816	0.7800484963950778	1.1301472004024935	0.3379744272254267	0.8523750862955188	1.5196595406129902	0.3222302810749344	0.742692117478232	1.578659564494943	0.3664670931085899	0.7442091017633296	1.5716310905089237	0.31748122407230556	0.9493117482636828	1.598984425688132	0.20573242009219012	0.6111642937429744	0.6665610447072257	0.15803794257288795	0.7726082887433018	1.1249825234113369	0.1481026356426314	0.8805359899310689	1.5452136928975055	0.17285997745695791	0.7600728047886004	1.5823811694550138	0.11237838416646374	0.7779307570269726	1.5712086515966024	0.164820361468827	0.9144704066809097	1.5822173710610838	0.3158877634969542	0.5191709490497403	0.1680192524314084	0.33876859169130225	0.42369076596926575	-0.05120823965038611	0.343330279519282	0.37991498996461154	0.07409427312601582	0.4347161602807494	0.5426005714025962	0.24751437646451072	0.4592768876531536	0.608256119491469	0.4976255961539017	0.576791967587599	0.43953295093139055	0.5009280947003292	0.6578343315023549	0.37012849351163035	0.46037138034337544	0.6712451029920217	0.3913229926651425	0.4658257863797454	0.6430662876456925	0.3478203647133503	0.4938618881011328	0.15356014248983016	0.5610178082566809	0.22872851073615783	0.06324824275945021	0.6421990278739852	0.46120146447891525	0.04421721854517768	0.49560543364186604	0.6589225985657363	0.06623227739720246	0.4587277248843397	0.7371652615277728	0.04746974852762702	0.438594648208043	0.7886147754155264	0.049454045639408195	0.4945171493887639	0.7956559060119154
238	3.966666666666667	0.37583662642865784	0.618183461987157	0.6768557969162075	0.39283512693970923	0.7927451454257552	1.1375401227895914	0.3412065567939713	0.869233604111732	1.529737247446951	0.32565102219760406	0.7251834124273188	1.571805987241699	0.3687313589489273	0.726890296392801	1.5689617469068333	0.3163656782881125	0.9507831694573478	1.6041159608438127	0.2056169293091916	0.611089560620708	0.66656496536944	0.16374361606700946	0.755224145867433	1.116893165159079	0.1481396841873172	0.8803834607466362	1.5451563088675122	0.1729699325886407	0.7590461507227517	1.5819251625324509	0.11354914235303912	0.7764580292885631	1.5669836647659672	0.1661438858903026	0.9139058005177296	1.5770076064803962	0.31251573969600044	0.5321852544666529	0.16740634150939976	0.33550190803229585	0.4357335467618778	-0.04977515701185642	0.3430148497061196	0.37976705415400197	0.07418881612040329	0.43879759533463053	0.5436859685569416	0.25096662529973085	0.4547878632074839	0.6059659568678388	0.49745532983676366	0.5768243060838175	0.4394130652909102	0.5043946587071804	0.6578128000957252	0.37020707491358823	0.46051380276131415	0.6673906998381484	0.38247645621898607	0.46822187951250216	0.6341124579055856	0.33631922720986207	0.493377289842969	0.15352561911478713	0.561057946338168	0.22859630709593798	0.06128910315790129	0.6668466910971995	0.45781302920869404	0.039487991989411574	0.49149341849315364	0.6540780736537366	0.06373676112467798	0.4434382384570274	0.7311824588198041	0.034426245263914655	0.3938702677567818	0.7535378564543204	0.04182202087883457	0.4802949307172188	0.7772964728862594
239	3.9833333333333334	0.3706826151753146	0.6013468192835917	0.667353489573822	0.3877187825384721	0.7770882812738441	1.1295610161933967	0.3374533394973381	0.8667737622054259	1.5248769632159183	0.3210441081998373	0.7186572584053802	1.561242344218367	0.3736775008561324	0.7398065673663873	1.5699513573179296	0.3163277853801769	0.9508793105123211	1.6042249282462688	0.2051752443463682	0.6086507209432502	0.6619382194721132	0.16219020775347476	0.7523271962712589	1.1197402572090827	0.14815507397499722	0.8803417442320137	1.5452063345991562	0.17420564152171997	0.7576605209586998	1.577433019596913	0.11359525019779539	0.7766532486319697	1.5670066255498856	0.16599462846165638	0.9136876017764388	1.576991202549683	0.31585050858898056	0.5193252390239801	0.16815781596929233	0.33543518989439813	0.43588417824576664	-0.04972607182398488	0.3428545131898074	0.3797163900059446	0.07417134331715615	0.43881593972114	0.5435853312135378	0.2509139405872896	0.45777053052118677	0.5815659960854699	0.4962484374303175	0.5790894260688602	0.4255269740226499	0.5034889237060277	0.6536207856201028	0.35986094376401	0.4602187457315484	0.6617407939315882	0.38100071353173726	0.46844225393503497	0.6343978785498836	0.33701922504283327	0.4959499420951783	0.15354467406818342	0.5610572413330797	0.22466502603808694	0.061105049625384183	0.6670163643901317	0.4571936708770713	0.03945295286133948	0.4891302251522456	0.6425950089996985	0.06331524304241369	0.4433220463031158	0.7305125333474454	0.031018300669768694	0.37794696923419946	0.7355032900664942	0.04177935743424431	0.47554869820210854	0.7606420428296119
240	4.0	0.36775239342994087	0.6181657260020553	0.6769204573013844	0.3885541543352069	0.7791224322963096	1.1340572423871589	0.3321691796345231	0.8524274980666574	1.5236853957709497	0.32686530492469174	0.7239099361378719	1.5668305992730331	0.37005232994174814	0.7261859374816564	1.5645490112598226	0.3163176187023258	0.9504305063606923	1.603745492856846	0.196646686162322	0.6217663792468314	0.6634916154174992	0.16780982052561796	0.7350674431183811	1.1115526170600896	0.14821864322949743	0.8804137401118408	1.5452666332687144	0.17161627526757608	0.7432426821823108	1.5714631379188395	0.11360039780817223	0.7761985161057006	1.566704945719365	0.16592015675313262	0.9137733648460489	1.5770119121470412	0.3123481624232233	0.5305326901962085	0.15982818463002132	0.3384824512380632	0.4237482726432297	-0.04815828924178293	0.3428442728114507	0.379389220840251	0.07422076825015596	0.43790726271063696	0.5424783403760112	0.24779275780380688	0.4548374413842936	0.5959485610444624	0.49394706852888254	0.5727321785876426	0.4380668902796959	0.5044173418822813	0.6485741761801034	0.3509065070549751	0.4632299734422487	0.6529030811526508	0.3613374041780575	0.4737600059651018	0.6373863485815525	0.33684201075901055	0.5034441927023438	0.15386933458136196	0.560592812917221	0.22146245542958332	0.06595781472329251	0.6530320617377346	0.4531095662230832	0.039493352436514625	0.4893930321972273	0.6422844640228659	0.06412876797678808	0.44348836338233083	0.7233982088885506	0.03130607691964562	0.3756518897864694	0.7243421444642072	0.04314331824249637	0.48595011257223353	0.7473907080783446
